<?xml version="1.0" encoding="UTF-8" standalone="no"?>
<!-- Created with Inkscape (http://www.inkscape.org/) -->

<svg
   xmlns:dc="http://purl.org/dc/elements/1.1/"
   xmlns:cc="http://creativecommons.org/ns#"
   xmlns:rdf="http://www.w3.org/1999/02/22-rdf-syntax-ns#"
   xmlns:svg="http://www.w3.org/2000/svg"
   xmlns="http://www.w3.org/2000/svg"
   xmlns:sodipodi="http://sodipodi.sourceforge.net/DTD/sodipodi-0.dtd"
   xmlns:inkscape="http://www.inkscape.org/namespaces/inkscape"
   width="253.99998mm"
   height="18.626671mm"
   viewBox="0 0 253.99998 18.626671"
   version="1.1"
   id="svg8"
   inkscape:version="0.92.3 (2405546, 2018-03-11)"
   sodipodi:docname="DTE.SVG.svg">
  <defs
     id="defs2" />
  <sodipodi:namedview
     id="base"
     pagecolor="#ffffff"
     bordercolor="#666666"
     borderopacity="1.0"
     inkscape:pageopacity="0.0"
     inkscape:pageshadow="2"
     inkscape:zoom="0.35"
     inkscape:cx="147.14284"
     inkscape:cy="12.342828"
     inkscape:document-units="mm"
     inkscape:current-layer="layer1"
     showgrid="false"
     fit-margin-top="0"
     fit-margin-left="0"
     fit-margin-right="0"
     fit-margin-bottom="0"
     inkscape:window-width="1358"
     inkscape:window-height="907"
     inkscape:window-x="201"
     inkscape:window-y="52"
     inkscape:window-maximized="0" />
  <metadata
     id="metadata5">
    <rdf:RDF>
      <cc:Work
         rdf:about="">
        <dc:format>image/svg+xml</dc:format>
        <dc:type
           rdf:resource="http://purl.org/dc/dcmitype/StillImage" />
        <dc:title></dc:title>
      </cc:Work>
    </rdf:RDF>
  </metadata>
  <g
     inkscape:label="Layer 1"
     inkscape:groupmode="layer"
     id="layer1"
     transform="translate(61.988092,-133.47237)">
    <path
       style="fill:#000000;stroke-width:0.16933334"
       d="m 15.610236,145.28337 -6.8240657,-6.81566 0.04587,6.73106 0.04587,6.73106 -1.481667,-6e-5 -1.481666,-6e-5 v -8.64441 c 0,-7.2556 0.0398,-8.72138 0.247736,-9.12348 0.285444,-0.55199 0.562082,-0.68945 1.387531,-0.68945 0.538915,0 0.903166,0.30025 4.0924827,3.3734 1.925505,1.85536 4.947964,4.82716 6.716578,6.604 1.768614,1.77683 3.273564,3.2306 3.344334,3.2306 0.07077,0 0.128671,-2.9718 0.128671,-6.604 v -6.604 h 1.439333 1.439334 v 8.72908 c 0,7.32991 -0.03971,8.80586 -0.247737,9.20815 -0.287372,0.55571 -0.561301,0.68944 -1.41225,0.68944 -0.585593,0 -0.956171,-0.33947 -7.440352,-6.81567 z m 58.799672,6.50131 c -0.2794,-0.1722 -3.345437,-3.18182 -6.813415,-6.68803 -3.467978,-3.50622 -6.344528,-6.37494 -6.392333,-6.37494 -0.04781,0 -0.08692,2.9718 -0.08692,6.604 v 6.604 H 59.588829 58.06042 l 0.04674,-8.7918 0.04674,-8.7918 0.410516,-0.43687 c 0.323901,-0.34469 0.572105,-0.43687 1.176349,-0.43687 h 0.76583 l 6.739987,6.72618 6.739985,6.72617 v -6.72617 -6.72618 h 1.524 1.524 v 8.55678 c 0,9.11486 -0.02891,9.46291 -0.821199,9.88693 -0.51043,0.27317 -1.232393,0.22057 -1.803468,-0.1314 z m 85.600112,-6.37431 c -3.68302,-3.67876 -6.75229,-6.68866 -6.82059,-6.68866 -0.0683,0 -0.12419,2.9718 -0.12419,6.604 v 6.604 h -1.43934 -1.43933 v -8.81303 -8.81303 l 0.41563,-0.41564 c 0.3103,-0.3103 0.5972,-0.41564 1.13204,-0.41564 0.70116,0 0.7788,0.0621 3.65198,2.921 5.25274,5.22662 10.57321,10.37503 10.64626,10.30198 0.0393,-0.0393 0.0714,-3.03052 0.0714,-6.6472 v -6.57578 h 1.43934 1.43933 v 8.72908 c 0,7.32991 -0.0397,8.80586 -0.24774,9.20815 -0.28737,0.5557 -0.5613,0.68944 -1.41218,0.68944 -0.58534,0 -0.95201,-0.33538 -7.31263,-6.68867 z m -221.998112,-2.61183 v -9.15683 l 5.799667,0.003 c 6.321345,0.003 7.245076,0.0998 9.044615,0.94594 1.26445,0.59454 3.059008,2.36935 3.663411,3.62312 0.773665,1.60488 1.019101,2.91484 0.920064,4.91066 -0.20786,4.18895 -2.360351,7.11275 -6.202921,8.42566 -0.635684,0.21719 -1.92264,0.2789 -7.001836,0.33573 l -6.223,0.0696 z m 13.090963,5.42484 c 2.35194,-1.16784 3.674461,-3.90964 3.180068,-6.59281 -0.355495,-1.92934 -1.30779,-3.29236 -2.926963,-4.18935 l -0.898068,-0.49751 -4.614333,-0.0523 -4.614334,-0.0523 v 5.94672 5.94672 l 4.529667,-0.0524 c 4.381341,-0.0507 4.556331,-0.0657 5.343963,-0.45676 z m 15.01837,-3.82557 v -7.5319 l -3.513666,-0.0458 -3.513667,-0.0458 -0.04869,-1.56633 -0.04869,-1.56633 h 8.557687 8.557688 v 1.60866 1.60867 h -3.471333 -3.471334 v 7.53533 7.53534 h -1.524 -1.524 z m 20.320001,-1.6121 v -9.144 h 8.1280001 8.1280002 v 1.60667 1.60668 l -6.5240089,0.0443 -6.5240064,0.0443 v 5.842 5.842 l 6.5240064,0.0443 6.5240089,0.0443 v 1.60668 1.60668 h -8.1280002 -8.1280001 z m 48.598666,8.97171 c -3.656667,-0.63563 -6.35182,-3.43464 -7.053519,-7.32535 -0.772121,-4.28116 1.057085,-8.24104 4.551152,-9.85238 1.839205,-0.84817 2.665484,-0.93798 8.629467,-0.93798 h 5.387567 v 1.60866 1.60867 h -5.581649 c -5.174505,0 -5.647939,0.0248 -6.490463,0.34003 -1.169757,0.43766 -2.389448,1.60615 -2.970588,2.84589 -0.399064,0.85131 -0.4513,1.16854 -0.4513,2.74075 0,1.59877 0.04715,1.874 0.467727,2.73042 0.611752,1.2457 1.828341,2.37163 3.060856,2.83278 0.903664,0.3381 1.284148,0.36346 5.452435,0.36346 h 4.480982 v -2.37066 -2.37067 h -4.148667 -4.148667 v -1.35467 -1.35466 h 5.757334 5.757333 v 5.334 5.334 l -5.969,-0.0199 c -3.28295,-0.011 -6.3119,-0.0795 -6.731,-0.15237 z m 16.256,-8.97171 v -9.144 h 1.524 1.524 v 9.144 9.144 h -1.524 -1.524 z m 29.21,0 v -9.144 h 8.170336 8.17033 v 1.60866 1.60867 h -6.604 -6.603999 v 5.92667 5.92666 h 6.603999 6.604 v 1.60867 1.60867 h -8.17033 -8.170336 z m 19.557992,0 v -9.144 h 8.128 8.128 v 1.60866 1.60867 h -6.604 -6.604 v 5.92667 5.92666 h 6.604 6.604 v 1.60867 1.60867 h -8.128 -8.128 z m 19.47334,-0.008 v -9.15218 l 7.493,0.0506 c 7.3714,0.0497 7.50866,0.0569 8.45847,0.44062 1.3547,0.54731 2.51197,1.64204 3.1139,2.94564 0.46077,0.9979 0.49263,1.20375 0.49263,3.18355 0,1.9798 -0.0319,2.18565 -0.49263,3.18355 -0.52183,1.13014 -1.83122,2.49183 -2.5758,2.67871 -0.2216,0.0556 -0.40291,0.16118 -0.40291,0.2346 0,0.0734 0.57934,0.6938 1.28743,1.37864 0.70806,0.68484 1.89741,1.91191 2.64299,2.72683 l 1.35556,1.48167 h -2.20702 -2.20703 l -2.31126,-2.54 -2.31126,-2.54 h -3.46556 -3.46555 l 0.0492,-1.397 0.0492,-1.397 4.48733,-0.0847 c 4.76472,-0.0899 5.04732,-0.13788 5.81616,-0.98745 0.79775,-0.8815 1.03448,-3.10972 0.46389,-4.36621 -0.17409,-0.38334 -0.60452,-0.91674 -0.95649,-1.18533 l -0.64,-0.48834 -5.81311,-0.0487 -5.81311,-0.0487 v 7.54166 7.54167 h -1.524 -1.524 v -9.15218 z m 23.70666,0.008 v -9.144 h 1.60867 1.60867 v 9.144 9.144 h -1.60867 -1.60867 z m 35.62582,8.89196 c -3.86386,-0.84051 -6.56449,-4.2392 -6.79038,-8.54557 -0.18647,-3.55488 1.31242,-6.61696 4.04309,-8.25962 1.80163,-1.08378 2.89358,-1.23077 9.14323,-1.23077 h 5.56091 v 1.60866 1.60867 h -5.58619 c -5.10365,0 -5.66029,0.0282 -6.44406,0.32597 -1.31218,0.49859 -2.2625,1.37549 -2.90498,2.68056 -0.51945,1.05515 -0.55877,1.25441 -0.55877,2.83191 0,1.26693 0.0823,1.91022 0.32468,2.53879 0.40703,1.0554 1.60963,2.35647 2.71997,2.94267 l 0.85002,0.44877 4.78366,0.052 4.78367,0.052 v -2.38034 -2.38034 h -4.14867 -4.14866 v -1.35467 -1.35466 h 5.75733 5.75733 v 5.334 5.334 l -6.05366,-0.0135 c -4.35922,-0.01 -6.34333,-0.0765 -7.08852,-0.23858 z m -186.840478,-9.0613 v -1.35466 h 4.9953334 4.9953329 v 1.35466 1.35467 H -2.9754246 -7.970758 Z m 93.979999,0 v -1.35466 h 5.080003 5.08 v 1.35466 1.35467 h -5.08 -5.080003 z m 19.473329,0 v -1.35466 h 5.08 5.08 v 1.35466 1.35467 h -5.08 -5.08 z"
       id="path4529"
       inkscape:connector-curvature="0" />
  </g>
</svg>
